<svg width="187" height="175" viewBox="0 0 187 175" fill="none" xmlns="http://www.w3.org/2000/svg">
<g clip-path="url(#clip0_2441_2012)">
<path d="M30.5425 140.195L13.6033 167.538H29.4327V174.384H0L16.9133 147.027H2.40135V140.195H30.5425Z" fill="white"/>
<path d="M49.1237 174.384H44.1717L32.7686 153.12H41.2057L46.3978 164.599L51.4926 153.12H56.5484L61.6431 164.599L66.8352 153.12H75.2724L63.8822 174.384H58.9108L54.0172 163.418L49.1237 174.384Z" fill="white"/>
<path d="M80.7501 171.756C78.8242 169.539 77.7637 166.701 77.7637 163.765C77.7637 160.829 78.8242 157.991 80.7501 155.774C81.7008 154.71 82.872 153.865 84.1823 153.299C85.4925 152.733 86.9103 152.46 88.3371 152.497C89.6158 152.452 90.8906 152.663 92.0866 153.117C93.2826 153.572 94.3755 154.261 95.301 155.145V153.12H102.641V174.384H95.3789V171.976H95.301C94.4323 172.959 93.3584 173.739 92.1551 174.262C90.9518 174.784 89.6484 175.036 88.3371 175C86.913 175.04 85.4971 174.771 84.1872 174.211C82.8773 173.651 81.7046 172.813 80.7501 171.756ZM87.0066 160.173C86.5333 160.643 86.1626 161.205 85.9179 161.825C85.6733 162.445 85.56 163.109 85.5853 163.775C85.5588 164.432 85.6653 165.088 85.8984 165.704C86.1314 166.319 86.4863 166.881 86.9417 167.356C87.415 167.824 87.9796 168.19 88.6005 168.43C89.2214 168.67 89.8851 168.779 90.5502 168.751C91.2066 168.774 91.8605 168.659 92.4705 168.416C93.0805 168.173 93.6332 167.805 94.0938 167.337C94.5529 166.867 94.9126 166.309 95.1513 165.697C95.3899 165.085 95.5026 164.431 95.4827 163.775C95.4885 162.79 95.2031 161.827 94.6624 161.004C94.1217 160.182 93.3499 159.538 92.4439 159.153C91.5379 158.768 90.5383 158.659 89.5708 158.841C88.6034 159.022 87.7112 159.486 87.0066 160.173Z" fill="white"/>
<path d="M111.429 171.756C109.503 169.539 108.442 166.701 108.442 163.765C108.442 160.829 109.503 157.991 111.429 155.774C112.378 154.71 113.548 153.865 114.857 153.3C116.167 152.734 117.583 152.46 119.009 152.497C120.288 152.452 121.563 152.663 122.759 153.117C123.955 153.572 125.048 154.261 125.973 155.145V153.12H133.313V174.384H126.058V171.976H125.947C125.079 172.959 124.005 173.739 122.801 174.262C121.598 174.784 120.295 175.036 118.983 175C117.565 175.036 116.155 174.765 114.851 174.205C113.547 173.645 112.379 172.81 111.429 171.756ZM117.659 160.173C117.187 160.644 116.817 161.206 116.573 161.826C116.328 162.445 116.214 163.109 116.238 163.775C116.212 164.433 116.32 165.089 116.554 165.704C116.788 166.32 117.144 166.882 117.601 167.356C118.072 167.825 118.636 168.191 119.256 168.431C119.876 168.671 120.539 168.78 121.203 168.751C121.859 168.774 122.513 168.659 123.123 168.416C123.733 168.173 124.286 167.805 124.747 167.337C125.638 166.36 126.13 165.083 126.122 163.76C126.115 162.438 125.61 161.166 124.708 160.199C123.759 159.291 122.497 158.784 121.183 158.784C119.87 158.784 118.608 159.291 117.659 160.199V160.173Z" fill="white"/>
<path d="M140.647 174.383V153.12H148.014V156.196H148.098C148.171 156.047 148.258 155.906 148.358 155.774C148.488 155.612 148.76 155.32 149.175 154.904C149.576 154.497 150.01 154.123 150.474 153.788C151.04 153.412 151.653 153.111 152.297 152.893C153.031 152.635 153.804 152.501 154.582 152.497C155.379 152.496 156.173 152.61 156.938 152.835C157.531 152.981 158.104 153.198 158.645 153.483L159.222 153.821L156.159 160.03C155.064 159.205 153.712 158.795 152.343 158.875C151.545 158.855 150.756 159.054 150.065 159.453C149.485 159.781 149.015 160.273 148.715 160.868C148.493 161.322 148.306 161.793 148.157 162.276C148.063 162.572 148.008 162.88 147.994 163.19V174.383H140.647Z" fill="white"/>
<path d="M165.109 171.756C163.183 169.539 162.123 166.701 162.123 163.765C162.123 160.829 163.183 157.991 165.109 155.774C166.058 154.71 167.228 153.866 168.538 153.3C169.847 152.734 171.264 152.46 172.689 152.497C173.968 152.452 175.243 152.662 176.439 153.117C177.635 153.572 178.728 154.261 179.653 155.145V153.12H186.994V174.384H179.738V171.976H179.653C178.785 172.96 177.711 173.741 176.508 174.263C175.305 174.786 174.001 175.037 172.689 175C171.266 175.04 169.851 174.771 168.543 174.211C167.234 173.651 166.062 172.813 165.109 171.756ZM171.339 160.173C170.867 160.644 170.498 161.206 170.253 161.826C170.008 162.445 169.894 163.109 169.918 163.775C169.893 164.433 170 165.089 170.234 165.705C170.468 166.32 170.824 166.882 171.281 167.356C171.753 167.824 172.317 168.189 172.937 168.429C173.556 168.669 174.219 168.779 174.883 168.752C175.54 168.774 176.193 168.66 176.803 168.416C177.413 168.173 177.966 167.805 178.427 167.337C179.319 166.36 179.81 165.083 179.803 163.761C179.795 162.438 179.29 161.167 178.388 160.199C177.93 159.738 177.384 159.375 176.781 159.131C176.179 158.888 175.533 158.77 174.883 158.785C174.229 158.765 173.578 158.878 172.969 159.117C172.36 159.356 171.806 159.715 171.339 160.173Z" fill="white"/>
<path d="M136.234 85.5535C136.24 92.6125 134.496 99.5629 131.159 105.784C127.821 112.004 122.995 117.301 117.11 121.202C111.224 125.102 104.465 127.483 97.4341 128.134C90.4035 128.784 83.3214 127.683 76.8205 124.928C70.3196 122.174 64.6026 117.852 60.1804 112.349C55.7581 106.846 52.7684 100.334 51.4785 93.3935C50.1886 86.4533 50.6387 79.3017 52.7884 72.5779C54.9382 65.854 58.7207 59.7674 63.7979 54.862L77.7906 68.8516C74.4481 72.0018 72.1281 76.0824 71.1307 80.5654C70.1333 85.0483 70.5045 89.7274 72.1963 93.9972C73.8881 98.2669 76.8225 101.931 80.62 104.515C84.4175 107.099 88.9032 108.484 93.4968 108.491C108.366 108.491 120.191 93.0479 115.284 78.643C113.214 72.5761 108.469 67.8718 103.874 63.3946C92.1922 52.0005 80.6463 40.5285 69.1133 29.0046L67.8997 27.8041L67.4064 27.311L52.6933 12.6011C58.9977 9.05443 65.74 6.34939 72.7478 4.55518C84.469 16.2738 96.1577 27.9729 107.97 39.5941L111.053 42.6243C117.225 48.7042 123.429 54.8166 128.68 61.7335C133.813 68.5077 136.234 77.0338 136.234 85.5535Z" fill="url(#paint0_linear_2441_2012)"/>
<path d="M92.2247 85.2876H84.5015V93.0091H92.2247V85.2876Z" fill="#BC1F38"/>
<path d="M102.499 85.2876H94.7754V93.0091H102.499V85.2876Z" fill="#BC1F38"/>
<path d="M92.2247 75.0806H84.5015V82.8021H92.2247V75.0806Z" fill="#BC1F38"/>
<path d="M102.499 75.0806H94.7754V82.8021H102.499V75.0806Z" fill="#BC1F38"/>
<path d="M110.196 24.1509C116.866 24.1509 122.274 18.7445 122.274 12.0755C122.274 5.40637 116.866 0 110.196 0C103.525 0 98.1177 5.40637 98.1177 12.0755C98.1177 18.7445 103.525 24.1509 110.196 24.1509Z" fill="#BC1F38"/>
<mask id="mask0_2441_2012" style="mask-type:luminance" maskUnits="userSpaceOnUse" x="98" y="0" width="25" height="25">
<path d="M110.189 24.1509C116.86 24.1509 122.268 18.7446 122.268 12.0755C122.268 5.40638 116.86 0 110.189 0C103.519 0 98.1113 5.40638 98.1113 12.0755C98.1113 18.7446 103.519 24.1509 110.189 24.1509Z" fill="white"/>
</mask>
<g mask="url(#mask0_2441_2012)">
<path d="M98.1113 0H122.274V24.1574H98.1113V0Z" fill="#BC1F38"/>
</g>
</g>
<defs>
<linearGradient id="paint0_linear_2441_2012" x1="114.362" y1="46.7252" x2="43.8313" y2="95.0026" gradientUnits="userSpaceOnUse">
<stop offset="0.0785412" stop-color="#602D8A"/>
<stop offset="1" stop-color="#BC1F38"/>
</linearGradient>
<clipPath id="clip0_2441_2012">
<rect width="187" height="175" fill="white"/>
</clipPath>
</defs>
</svg>
