<svg width="61" height="12" viewBox="0 0 61 12" fill="none" xmlns="http://www.w3.org/2000/svg">
<path d="M9.71917 0.554626L4.4007 9.1392C4.39316 9.15107 4.38884 9.16475 4.38842 9.17881C4.388 9.19287 4.39145 9.20677 4.39828 9.21907C4.40511 9.23136 4.41516 9.24158 4.42731 9.24866C4.43947 9.25573 4.45326 9.25939 4.46732 9.25925H9.35313C9.36355 9.259 9.37395 9.26083 9.38365 9.26464C9.39335 9.26846 9.40224 9.27417 9.4097 9.28145C9.41716 9.28873 9.42315 9.29743 9.42719 9.30703C9.43124 9.31664 9.43333 9.32696 9.43333 9.33738V11.3878C9.43333 11.3982 9.43124 11.4085 9.42719 11.4181C9.42315 11.4277 9.41716 11.4364 9.4097 11.4437C9.40224 11.451 9.39335 11.4567 9.38365 11.4605C9.37395 11.4643 9.36355 11.4661 9.35313 11.4659H0.0787517C0.0646889 11.466 0.0508982 11.4624 0.0387423 11.4553C0.0265864 11.4482 0.016542 11.438 0.00971219 11.4257C0.00288235 11.4134 -0.000381746 11.3995 3.54871e-05 11.3855C0.00045272 11.3714 0.00458442 11.3577 0.0121314 11.3458L5.32111 2.75936C5.32875 2.74736 5.33286 2.7335 5.3332 2.71927C5.33354 2.70504 5.33003 2.69099 5.32297 2.67863C5.31591 2.66628 5.30562 2.65608 5.29319 2.64915C5.28076 2.64223 5.26666 2.63882 5.25244 2.63932H0.793339C0.772439 2.63932 0.752468 2.63115 0.737512 2.61655C0.722556 2.60195 0.713818 2.58208 0.71332 2.56119V0.512703C0.713818 0.491809 0.722556 0.471938 0.737512 0.457338C0.752468 0.442739 0.772439 0.434568 0.793339 0.434574H9.65236C9.66642 0.434436 9.68021 0.438097 9.69237 0.44517C9.70452 0.452242 9.71457 0.462461 9.7214 0.474755C9.72823 0.487049 9.73168 0.50096 9.73126 0.515018C9.73085 0.529075 9.72671 0.542759 9.71917 0.554626Z" fill="#3E3E45"/>
<path d="M15.7343 11.4655H14.227C14.2128 11.4656 14.1989 11.4617 14.1868 11.4543C14.1747 11.4469 14.1649 11.4362 14.1585 11.4235L10.5646 4.71976C10.5579 4.70784 10.5545 4.69438 10.5547 4.68072C10.5549 4.66707 10.5585 4.6537 10.5655 4.64194C10.5724 4.63018 10.5823 4.62044 10.5941 4.6137C10.606 4.60696 10.6196 4.60345 10.6332 4.60352H13.1789C13.1943 4.60389 13.2093 4.60856 13.2221 4.61698C13.2349 4.6254 13.2449 4.63724 13.2513 4.65116L14.8311 8.14787C14.8375 8.16161 14.8478 8.17322 14.8606 8.18136C14.8735 8.18949 14.8884 8.19381 14.9036 8.19381C14.9188 8.19381 14.9336 8.18949 14.9464 8.18136C14.9592 8.17322 14.9695 8.16161 14.976 8.14787L16.5271 4.65116C16.5335 4.63724 16.5437 4.6254 16.5565 4.61698C16.5693 4.60856 16.5842 4.60389 16.5995 4.60352H18.1239C18.1392 4.60389 18.1541 4.60856 18.1669 4.61698C18.1797 4.6254 18.1899 4.63724 18.1963 4.65116L19.7476 8.14787C19.754 8.16161 19.7641 8.17322 19.777 8.18136C19.7898 8.18949 19.8048 8.19381 19.82 8.19381C19.8351 8.19381 19.8499 8.18949 19.8628 8.18136C19.8756 8.17322 19.8859 8.16161 19.8923 8.14787L21.4721 4.65116C21.4785 4.63724 21.4887 4.6254 21.5015 4.61698C21.5143 4.60856 21.5291 4.60389 21.5444 4.60352H24.0864C24.1001 4.60366 24.1133 4.60728 24.1252 4.61402C24.137 4.62076 24.1469 4.6304 24.154 4.64204C24.1611 4.65367 24.165 4.66692 24.1655 4.68051C24.166 4.69411 24.1631 4.70762 24.157 4.71976L20.5651 11.4235C20.5587 11.4362 20.5487 11.4469 20.5366 11.4543C20.5245 11.4617 20.5106 11.4656 20.4964 11.4655H18.9891C18.9741 11.4658 18.9594 11.4617 18.9468 11.4535C18.9342 11.4454 18.9243 11.4336 18.9185 11.4197L17.4322 8.08308C17.4258 8.06934 17.4155 8.05772 17.4026 8.04959C17.3898 8.04145 17.375 8.03713 17.3598 8.03713C17.3446 8.03713 17.3297 8.04145 17.3168 8.04959C17.304 8.05772 17.2939 8.06934 17.2874 8.08308L15.8011 11.4197C15.7956 11.433 15.7864 11.4443 15.7745 11.4525C15.7627 11.4606 15.7487 11.4651 15.7343 11.4655Z" fill="#3E3E45"/>
<path d="M25.9913 10.618C25.3697 9.90328 25.0273 8.98797 25.0273 8.04074C25.0273 7.09351 25.3697 6.1782 25.9913 5.46346C26.2974 5.1194 26.675 4.84633 27.0976 4.66333C27.5202 4.48033 27.9776 4.39181 28.438 4.40397C29.2098 4.37908 29.9633 4.64114 30.5531 5.13952C30.5642 5.14992 30.5783 5.15685 30.5933 5.15944C30.6083 5.16203 30.6238 5.16017 30.6378 5.15409C30.6518 5.14802 30.6635 5.13799 30.6718 5.12524C30.6802 5.11249 30.6847 5.09758 30.6847 5.08235V4.6898C30.6844 4.67938 30.6863 4.66902 30.6901 4.65932C30.6939 4.64962 30.6995 4.64078 30.7068 4.63332C30.7141 4.62586 30.7229 4.61994 30.7325 4.61589C30.7421 4.61185 30.7524 4.60977 30.7628 4.60977H32.9732C32.9836 4.60977 32.9939 4.61185 33.0036 4.61589C33.0132 4.61994 33.022 4.62586 33.0292 4.63332C33.0365 4.64078 33.0422 4.64962 33.046 4.65932C33.0498 4.66902 33.0516 4.67938 33.0514 4.6898V11.3936C33.0514 11.4038 33.0493 11.414 33.0454 11.4235C33.0415 11.433 33.0357 11.4416 33.0285 11.4488C33.0212 11.4561 33.0127 11.4618 33.0032 11.4658C32.9937 11.4697 32.9835 11.4717 32.9732 11.4717H30.7894C30.779 11.472 30.7686 11.4701 30.7589 11.4663C30.7492 11.4625 30.7405 11.4568 30.7331 11.4495C30.7256 11.4422 30.7196 11.4335 30.7156 11.4239C30.7115 11.4143 30.7094 11.404 30.7094 11.3936V10.6961H30.6847C30.4041 11.0129 30.0577 11.2644 29.6696 11.433C29.2814 11.6015 28.861 11.683 28.438 11.6718C27.9782 11.684 27.5212 11.5961 27.0987 11.4141C26.6762 11.2322 26.2984 10.9605 25.9913 10.618ZM28.0016 6.8812C27.849 7.03278 27.7295 7.21431 27.6505 7.41436C27.5714 7.61441 27.5346 7.82865 27.5424 8.0436C27.5343 8.25608 27.5693 8.468 27.6449 8.66672C27.7205 8.86545 27.8354 9.04691 27.9826 9.20028C28.1351 9.35092 28.3171 9.46845 28.5171 9.54551C28.7171 9.62256 28.9308 9.65748 29.145 9.64808C29.3567 9.6558 29.5678 9.61929 29.7646 9.54088C29.9615 9.46246 30.1398 9.34386 30.2883 9.19266C30.5788 8.87709 30.7389 8.46319 30.7364 8.03431C30.7339 7.60542 30.569 7.19339 30.2749 6.8812C30.1272 6.73277 29.9509 6.61587 29.7566 6.53759C29.5624 6.45931 29.3543 6.42127 29.145 6.42577C28.9335 6.42056 28.7233 6.45822 28.5268 6.53649C28.3303 6.61477 28.1516 6.73203 28.0016 6.8812Z" fill="#3E3E45"/>
<path d="M45.3131 11.3874V4.6893C45.3131 4.66807 45.3215 4.64772 45.3365 4.63271C45.3515 4.6177 45.3721 4.60927 45.3933 4.60927H47.6037C47.6141 4.60926 47.6244 4.61135 47.634 4.61539C47.6436 4.61944 47.6524 4.62536 47.6597 4.63282C47.667 4.64028 47.6726 4.64912 47.6764 4.65882C47.6802 4.66852 47.6821 4.67888 47.6818 4.6893V5.60207H47.7084C47.7322 5.5551 47.7603 5.51045 47.7924 5.46868C47.8747 5.36983 47.9625 5.27568 48.0553 5.18665C48.1865 5.05482 48.3286 4.93434 48.4801 4.8265C48.6633 4.70412 48.8621 4.60671 49.071 4.53685C49.3079 4.45326 49.5572 4.4101 49.8085 4.40918C50.0664 4.40882 50.3231 4.4454 50.5707 4.5178C50.7623 4.56612 50.9472 4.6378 51.1213 4.73122L51.3119 4.83984L50.3591 6.75684C50.3542 6.76749 50.347 6.77686 50.3379 6.78424C50.3288 6.79162 50.3181 6.7968 50.3066 6.79938C50.2952 6.80196 50.2834 6.80187 50.272 6.79912C50.2606 6.79637 50.2499 6.79103 50.2409 6.78352C49.8993 6.55841 49.4948 6.44825 49.0862 6.4691C48.8288 6.46338 48.5746 6.52936 48.3525 6.65966C48.1659 6.76586 48.0142 6.92411 47.9161 7.11509C47.8435 7.2615 47.7837 7.41386 47.7371 7.57052C47.7062 7.66615 47.6882 7.76549 47.6837 7.86588V11.3969C47.6837 11.4176 47.6754 11.4375 47.6608 11.4521C47.6461 11.4668 47.6262 11.475 47.6055 11.475H45.3951C45.3837 11.4757 45.3723 11.4738 45.3616 11.4695C45.351 11.4653 45.3414 11.4587 45.3335 11.4504C45.3257 11.442 45.32 11.432 45.3164 11.4211C45.3129 11.4103 45.3117 11.3987 45.3131 11.3874Z" fill="#3E3E45"/>
<path d="M55.6065 7.91211H55.1016C55.0584 7.91211 55.0234 7.94709 55.0234 7.99024V8.49521C55.0234 8.53836 55.0584 8.57334 55.1016 8.57334H55.6065C55.6496 8.57334 55.6846 8.53836 55.6846 8.49521V7.99024C55.6846 7.94709 55.6496 7.91211 55.6065 7.91211Z" fill="url(#paint0_linear_2099_5684)"/>
<path d="M56.4856 7.91211H55.9805C55.9374 7.91211 55.9023 7.94709 55.9023 7.99024V8.49521C55.9023 8.53836 55.9374 8.57334 55.9805 8.57334H56.4856C56.5287 8.57334 56.5637 8.53836 56.5637 8.49521V7.99024C56.5637 7.94709 56.5287 7.91211 56.4856 7.91211Z" fill="url(#paint1_linear_2099_5684)"/>
<path d="M55.6065 7.03711H55.1016C55.0584 7.03711 55.0234 7.07209 55.0234 7.11524V7.62021C55.0234 7.66336 55.0584 7.69834 55.1016 7.69834H55.6065C55.6496 7.69834 55.6846 7.66336 55.6846 7.62021V7.11524C55.6846 7.07209 55.6496 7.03711 55.6065 7.03711Z" fill="url(#paint2_linear_2099_5684)"/>
<path d="M56.4856 7.03711H55.9805C55.9374 7.03711 55.9023 7.07209 55.9023 7.11524V7.62021C55.9023 7.66336 55.9374 7.69834 55.9805 7.69834H56.4856C56.5287 7.69834 56.5637 7.66336 56.5637 7.62021V7.11524C56.5637 7.07209 56.5287 7.03711 56.4856 7.03711Z" fill="url(#paint3_linear_2099_5684)"/>
<path d="M35.6654 10.5185C35.0448 9.80292 34.7031 8.88748 34.7031 7.94026C34.7031 6.99304 35.0448 6.07761 35.6654 5.36203C35.9718 5.01842 36.3495 4.74577 36.7721 4.56311C37.1947 4.38046 37.6521 4.29218 38.1123 4.30444C38.8844 4.27891 39.6385 4.54027 40.2293 5.03809C40.2401 5.04877 40.2541 5.05595 40.2691 5.05869C40.2841 5.06143 40.2994 5.0596 40.3134 5.05344C40.3273 5.04728 40.3392 5.03708 40.3472 5.02415C40.3553 5.01122 40.3593 4.99616 40.3588 4.98092V4.58266C40.3588 4.57223 40.3609 4.56192 40.3649 4.55231C40.369 4.54271 40.375 4.53401 40.3824 4.52673C40.3899 4.51945 40.3988 4.51373 40.4085 4.50992C40.4182 4.50611 40.4286 4.50427 40.439 4.50453H42.6494C42.6701 4.50453 42.69 4.51276 42.7046 4.52741C42.7193 4.54206 42.7275 4.56194 42.7275 4.58266V11.2864C42.7278 11.2969 42.7259 11.3072 42.7221 11.3169C42.7183 11.3266 42.7127 11.3355 42.7054 11.3429C42.6981 11.3504 42.6893 11.3563 42.6797 11.3603C42.6701 11.3644 42.6598 11.3665 42.6494 11.3665H40.4656C40.4444 11.3665 40.424 11.358 40.409 11.343C40.394 11.328 40.3856 11.3077 40.3856 11.2864V10.5966H40.3588C40.0788 10.9142 39.7325 11.1665 39.3442 11.3354C38.956 11.5043 38.5355 11.5858 38.1123 11.5742C37.6524 11.5855 37.1954 11.497 36.773 11.3148C36.3506 11.1325 35.9727 10.8609 35.6654 10.5185ZM37.6778 6.78549C37.525 6.93736 37.4053 7.11921 37.3263 7.31959C37.2472 7.51997 37.2106 7.73453 37.2185 7.94979C37.2106 8.1618 37.2452 8.37326 37.3205 8.57162C37.3958 8.76997 37.5101 8.9512 37.6568 9.10457C37.8092 9.25589 37.9914 9.37397 38.1918 9.45137C38.3922 9.52877 38.6065 9.56381 38.8211 9.55428C39.0329 9.562 39.2439 9.52548 39.4408 9.44707C39.6377 9.36865 39.816 9.25006 39.9645 9.09885C40.2557 8.78342 40.4165 8.36926 40.4144 7.93992C40.4123 7.51058 40.2473 7.09803 39.9529 6.78549C39.6467 6.49322 39.2396 6.33015 38.8163 6.33015C38.3929 6.33015 37.9859 6.49322 37.6796 6.78549H37.6778Z" fill="#3E3E45"/>
<path d="M60.7183 4.60358H58.5345C58.5133 4.60358 58.4928 4.61202 58.4778 4.62703C58.4628 4.64203 58.4545 4.66239 58.4545 4.68362V5.4668C58.0905 5.04377 57.6923 4.64932 57.2959 4.25868L57.0309 3.99761C56.0305 3.01434 55.0397 2.02154 54.0488 1.03065C54.0388 1.02053 54.0263 1.01325 54.0125 1.00957C53.9988 1.00589 53.9844 1.00593 53.9707 1.00969C53.4208 1.15359 52.8904 1.36346 52.3909 1.63471C52.3803 1.6408 52.3712 1.64926 52.3643 1.65943C52.3575 1.6696 52.353 1.68122 52.3513 1.69337C52.3496 1.70553 52.3508 1.7179 52.3546 1.72954C52.3585 1.74117 52.3652 1.75176 52.3738 1.76048L53.5572 2.94574L53.6009 2.98766L53.7038 3.09247C54.6909 4.07955 55.6831 5.06155 56.6803 6.03847C57.0729 6.41959 57.4806 6.82547 57.6579 7.34379C58.0771 8.57478 57.0652 9.89724 55.7923 9.89724C55.4002 9.8983 55.017 9.78073 54.6929 9.55996C54.4536 9.39922 54.2526 9.18764 54.1045 8.94032C53.9563 8.69301 53.8647 8.41604 53.8359 8.12919C53.8072 7.84234 53.842 7.55268 53.9381 7.28088C54.0342 7.00908 54.1891 6.76183 54.3918 6.55679C54.399 6.54953 54.4048 6.54092 54.4087 6.53144C54.4126 6.52195 54.4147 6.51179 54.4147 6.50153C54.4147 6.49126 54.4126 6.4811 54.4087 6.47162C54.4048 6.46214 54.399 6.45352 54.3918 6.44627L53.3056 5.36009C53.2906 5.34531 53.2704 5.33703 53.2494 5.33703C53.2283 5.33703 53.2081 5.34531 53.1932 5.36009C52.8451 5.70083 52.5686 6.10764 52.3798 6.55667C52.191 7.00569 52.0937 7.4879 52.0938 7.97499C52.0938 8.46209 52.1911 8.94427 52.38 9.39326C52.5688 9.84225 52.8456 10.249 53.1937 10.5897C53.5419 10.9303 53.9544 11.1981 54.4074 11.3771C54.8604 11.5562 55.3446 11.643 55.8316 11.6325C56.3185 11.6219 56.7986 11.5143 57.2434 11.3158C57.6882 11.1173 58.0889 10.8319 58.4219 10.4765C58.4334 10.4651 58.4431 10.4518 58.4545 10.4384V11.3912C58.4545 11.4016 58.4564 11.412 58.4605 11.4216C58.4645 11.4312 58.4705 11.4399 58.478 11.4471C58.4854 11.4544 58.4943 11.4601 58.504 11.4639C58.5137 11.4678 58.5241 11.4696 58.5345 11.4693H60.7183C60.7286 11.4693 60.7386 11.4673 60.7481 11.4634C60.7576 11.4595 60.7663 11.4537 60.7736 11.4465C60.7808 11.4392 60.7866 11.4306 60.7905 11.4211C60.7944 11.4116 60.7963 11.4015 60.7963 11.3912V4.68933C60.7973 4.67845 60.7962 4.66747 60.7927 4.65709C60.7893 4.64671 60.7837 4.63717 60.7764 4.62909C60.769 4.62101 60.7599 4.61456 60.7499 4.61017C60.7399 4.60578 60.7292 4.60353 60.7183 4.60358Z" fill="url(#paint4_linear_2099_5684)"/>
<path d="M57.9001 2.67541C58.6389 2.67541 59.2379 2.0765 59.2379 1.33771C59.2379 0.598913 58.6389 0 57.9001 0C57.1613 0 56.5625 0.598913 56.5625 1.33771C56.5625 2.0765 57.1613 2.67541 57.9001 2.67541Z" fill="url(#paint5_linear_2099_5684)"/>
<defs>
<linearGradient id="paint0_linear_2099_5684" x1="55.0234" y1="8.24177" x2="55.6846" y2="8.24177" gradientUnits="userSpaceOnUse">
<stop offset="0.15" stop-color="#BC2039"/>
<stop offset="1" stop-color="#BC1F38"/>
</linearGradient>
<linearGradient id="paint1_linear_2099_5684" x1="55.9023" y1="8.24177" x2="56.5637" y2="8.24177" gradientUnits="userSpaceOnUse">
<stop offset="0.15" stop-color="#BC2039"/>
<stop offset="1" stop-color="#BC1F38"/>
</linearGradient>
<linearGradient id="paint2_linear_2099_5684" x1="55.0234" y1="7.36868" x2="55.6846" y2="7.36868" gradientUnits="userSpaceOnUse">
<stop offset="0.15" stop-color="#BC2039"/>
<stop offset="1" stop-color="#BC1F38"/>
</linearGradient>
<linearGradient id="paint3_linear_2099_5684" x1="55.9023" y1="7.36868" x2="56.5637" y2="7.36868" gradientUnits="userSpaceOnUse">
<stop offset="0.15" stop-color="#BC2039"/>
<stop offset="1" stop-color="#BC1F38"/>
</linearGradient>
<linearGradient id="paint4_linear_2099_5684" x1="50.8493" y1="12.2697" x2="58.6754" y2="4.44354" gradientUnits="userSpaceOnUse">
<stop offset="0.12" stop-color="#BC1F38"/>
<stop offset="0.89" stop-color="#602D8A"/>
</linearGradient>
<linearGradient id="paint5_linear_2099_5684" x1="55.1638" y1="1.33771" x2="57.8392" y2="1.33771" gradientUnits="userSpaceOnUse">
<stop offset="0.14" stop-color="#BC2039"/>
<stop offset="1" stop-color="#BC1F38"/>
</linearGradient>
</defs>
</svg>
