<svg width="98" height="51" viewBox="0 0 98 51" fill="none" xmlns="http://www.w3.org/2000/svg">
<g filter="url(#filter0_d_2446_4605)">
<path d="M32.2105 28.2402C32.2124 30.5706 31.6369 32.8651 30.5354 34.9188C29.434 36.9724 27.841 38.7212 25.8986 40.0087C23.9562 41.2963 21.7251 42.0825 19.4046 42.2972C17.0841 42.5119 14.7466 42.1483 12.6009 41.2389C10.4553 40.3295 8.56845 38.9027 7.10894 37.0859C5.64944 35.2692 4.66284 33.1192 4.23724 30.828C3.81164 28.5368 3.96032 26.1758 4.67003 23.9562C5.37974 21.7365 6.62831 19.7272 8.30422 18.108L12.9216 22.7269C11.8188 23.7669 11.0535 25.1138 10.7245 26.5934C10.3956 28.073 10.5182 29.6173 11.0765 31.0265C11.6349 32.4357 12.6032 33.645 13.8562 34.4978C15.1093 35.3507 16.5895 35.8079 18.1052 35.8104C23.014 35.8104 26.9158 30.7111 25.2961 25.968C24.6122 23.9657 23.0471 22.4106 21.5318 20.9333C17.673 17.1723 13.8639 13.3847 10.0564 9.57559L9.65735 9.17481L9.49173 9.00919L4.63591 4.15176C6.71901 2.98324 8.9461 2.0924 11.2604 1.50195C15.1275 5.37067 18.9864 9.23277 22.8849 13.0717L23.9017 14.0736C25.9404 16.0809 27.9873 18.098 29.7213 20.3802C31.4122 22.6176 32.2105 25.4314 32.2105 28.2402Z" fill="url(#paint0_linear_2446_4605)"/>
<path d="M17.6855 28.1562H15.1367V30.705H17.6855V28.1562Z" fill="#BC1F38"/>
<path d="M21.0741 28.1562H18.5254V30.705H21.0741V28.1562Z" fill="#BC1F38"/>
<path d="M17.6855 24.7871H15.1367V27.3359H17.6855V24.7871Z" fill="#BC1F38"/>
<path d="M21.0741 24.7871H18.5254V27.3359H21.0741V24.7871Z" fill="#BC1F38"/>
<path d="M23.6149 7.97593C25.8174 7.97593 27.6029 6.19045 27.6029 3.98796C27.6029 1.78547 25.8174 0 23.6149 0C21.4124 0 19.627 1.78547 19.627 3.98796C19.627 6.19045 21.4124 7.97593 23.6149 7.97593Z" fill="#BC1F38"/>
<mask id="mask0_2446_4605" style="mask-type:luminance" maskUnits="userSpaceOnUse" x="19" y="0" width="9" height="8">
<path d="M23.6148 7.97593C25.8173 7.97593 27.6028 6.19045 27.6028 3.98796C27.6028 1.78547 25.8173 0 23.6148 0C21.4124 0 19.627 1.78547 19.627 3.98796C19.627 6.19045 21.4124 7.97593 23.6148 7.97593Z" fill="white"/>
</mask>
<g mask="url(#mask0_2446_4605)">
<path d="M19.6289 0H27.6031V7.97593H19.6289V0Z" fill="#BC1F38"/>
</g>
</g>
<path d="M53.6091 16.6688L48.9868 24.1297C48.9802 24.14 48.9765 24.1519 48.9761 24.1641C48.9757 24.1763 48.9787 24.1884 48.9847 24.1991C48.9906 24.2098 48.9993 24.2186 49.0099 24.2248C49.0205 24.2309 49.0324 24.2341 49.0447 24.234H53.2909C53.3 24.2338 53.309 24.2354 53.3175 24.2387C53.3259 24.242 53.3336 24.247 53.3401 24.2533C53.3466 24.2596 53.3518 24.2672 53.3553 24.2755C53.3588 24.2839 53.3606 24.2928 53.3606 24.3019V26.0839C53.3606 26.093 53.3588 26.1019 53.3553 26.1103C53.3518 26.1186 53.3466 26.1262 53.3401 26.1325C53.3336 26.1388 53.3259 26.1438 53.3175 26.1471C53.309 26.1504 53.3 26.152 53.2909 26.1518H45.2306C45.2183 26.1519 45.2063 26.1487 45.1958 26.1426C45.1852 26.1364 45.1765 26.1276 45.1706 26.1169C45.1646 26.1062 45.1618 26.0941 45.1621 26.0819C45.1625 26.0697 45.1661 26.0578 45.1727 26.0475L49.7867 18.5849C49.7933 18.5745 49.7969 18.5625 49.7972 18.5501C49.7975 18.5377 49.7944 18.5255 49.7883 18.5148C49.7822 18.504 49.7732 18.4952 49.7624 18.4892C49.7516 18.4831 49.7394 18.4802 49.727 18.4806H45.8516C45.8334 18.4806 45.8161 18.4735 45.8031 18.4608C45.7901 18.4481 45.7825 18.4309 45.7821 18.4127V16.6324C45.7825 16.6142 45.7901 16.5969 45.8031 16.5842C45.8161 16.5716 45.8334 16.5645 45.8516 16.5645H53.551C53.5632 16.5643 53.5752 16.5675 53.5858 16.5737C53.5963 16.5798 53.6051 16.5887 53.611 16.5994C53.6169 16.6101 53.6199 16.6222 53.6196 16.6344C53.6192 16.6466 53.6156 16.6585 53.6091 16.6688Z" fill="#3E3E45"/>
<path d="M58.8376 26.1512H57.5276C57.5152 26.1513 57.5032 26.1479 57.4926 26.1415C57.4821 26.1351 57.4736 26.1258 57.468 26.1148L54.3445 20.2885C54.3387 20.2782 54.3358 20.2665 54.3359 20.2546C54.3361 20.2427 54.3393 20.2311 54.3453 20.2209C54.3514 20.2107 54.3599 20.2022 54.3702 20.1963C54.3806 20.1905 54.3923 20.1874 54.4042 20.1875H56.6167C56.63 20.1878 56.6431 20.1919 56.6542 20.1992C56.6653 20.2065 56.674 20.2168 56.6796 20.2289L58.0525 23.2679C58.0582 23.2798 58.0671 23.2899 58.0782 23.297C58.0894 23.3041 58.1024 23.3078 58.1156 23.3078C58.1288 23.3078 58.1417 23.3041 58.1528 23.297C58.1639 23.2899 58.1729 23.2798 58.1785 23.2679L59.5266 20.2289C59.5321 20.2168 59.541 20.2065 59.5521 20.1992C59.5632 20.1919 59.5762 20.1878 59.5895 20.1875H60.9144C60.9277 20.1878 60.9406 20.1919 60.9517 20.1992C60.9629 20.2065 60.9717 20.2168 60.9773 20.2289L62.3255 23.2679C62.3311 23.2798 62.3399 23.2899 62.351 23.297C62.3622 23.3041 62.3752 23.3078 62.3884 23.3078C62.4016 23.3078 62.4144 23.3041 62.4256 23.297C62.4367 23.2899 62.4457 23.2798 62.4513 23.2679L63.8242 20.2289C63.8298 20.2168 63.8387 20.2065 63.8498 20.1992C63.8609 20.1919 63.8738 20.1878 63.8872 20.1875H66.0964C66.1082 20.1876 66.1198 20.1908 66.1301 20.1966C66.1403 20.2025 66.149 20.2109 66.1551 20.221C66.1613 20.2311 66.1647 20.2426 66.1651 20.2544C66.1656 20.2662 66.1631 20.278 66.1577 20.2885L63.036 26.1148C63.0304 26.1258 63.0218 26.1351 63.0112 26.1415C63.0007 26.1479 62.9886 26.1513 62.9763 26.1512H61.6663C61.6532 26.1516 61.6405 26.1479 61.6295 26.1408C61.6186 26.1338 61.61 26.1235 61.605 26.1115L60.3132 23.2116C60.3076 23.1997 60.2986 23.1896 60.2875 23.1825C60.2764 23.1754 60.2635 23.1717 60.2503 23.1717C60.2371 23.1717 60.2241 23.1754 60.2129 23.1825C60.2018 23.1896 60.193 23.1997 60.1874 23.2116L58.8956 26.1115C58.8908 26.123 58.8828 26.1329 58.8725 26.1399C58.8622 26.147 58.85 26.1509 58.8376 26.1512Z" fill="#3E3E45"/>
<path d="M67.7499 25.4157C67.2096 24.7945 66.9121 23.999 66.9121 23.1758C66.9121 22.3526 67.2096 21.5571 67.7499 20.9359C68.0159 20.6369 68.3441 20.3995 68.7114 20.2405C69.0787 20.0814 69.4762 20.0045 69.8763 20.0151C70.5471 19.9935 71.202 20.2212 71.7146 20.6543C71.7242 20.6634 71.7364 20.6694 71.7495 20.6717C71.7625 20.6739 71.776 20.6723 71.7882 20.667C71.8003 20.6617 71.8105 20.653 71.8177 20.6419C71.825 20.6309 71.8289 20.6179 71.8289 20.6047V20.2635C71.8287 20.2544 71.8303 20.2454 71.8336 20.237C71.8369 20.2286 71.8418 20.2209 71.8482 20.2144C71.8545 20.2079 71.8621 20.2028 71.8705 20.1993C71.8788 20.1958 71.8878 20.1939 71.8968 20.1939H73.8179C73.8269 20.1939 73.8359 20.1958 73.8442 20.1993C73.8526 20.2028 73.8602 20.2079 73.8666 20.2144C73.8729 20.2209 73.8778 20.2286 73.8811 20.237C73.8844 20.2454 73.886 20.2544 73.8858 20.2635V26.0898C73.8858 26.0987 73.884 26.1075 73.8806 26.1158C73.8772 26.124 73.8722 26.1315 73.8659 26.1378C73.8596 26.1441 73.8522 26.1491 73.8439 26.1525C73.8357 26.1559 73.8268 26.1577 73.8179 26.1577H71.92C71.9109 26.1579 71.9019 26.1563 71.8934 26.153C71.885 26.1497 71.8774 26.1447 71.871 26.1384C71.8645 26.1321 71.8593 26.1245 71.8558 26.1161C71.8522 26.1078 71.8504 26.0988 71.8504 26.0898V25.4836H71.8289C71.5851 25.7589 71.284 25.9775 70.9467 26.124C70.6093 26.2705 70.244 26.3413 69.8763 26.3316C69.4767 26.3422 69.0795 26.2658 68.7123 26.1076C68.3452 25.9495 68.0167 25.7134 67.7499 25.4157ZM69.4971 22.1681C69.3644 22.2998 69.2606 22.4576 69.1919 22.6314C69.1232 22.8053 69.0911 22.9915 69.0979 23.1783C69.0909 23.363 69.1213 23.5471 69.187 23.7199C69.2528 23.8926 69.3526 24.0503 69.4806 24.1836C69.6131 24.3145 69.7712 24.4166 69.9451 24.4836C70.1189 24.5506 70.3046 24.5809 70.4907 24.5728C70.6748 24.5795 70.8582 24.5477 71.0293 24.4796C71.2004 24.4114 71.3554 24.3084 71.4844 24.1769C71.7369 23.9027 71.876 23.543 71.8739 23.1702C71.8717 22.7975 71.7284 22.4394 71.4728 22.1681C71.3444 22.0391 71.1912 21.9375 71.0224 21.8694C70.8535 21.8014 70.6727 21.7683 70.4907 21.7722C70.307 21.7677 70.1243 21.8004 69.9535 21.8685C69.7827 21.9365 69.6274 22.0384 69.4971 22.1681Z" fill="#3E3E45"/>
<path d="M84.5435 26.0843V20.263C84.5435 20.2445 84.5508 20.2268 84.5638 20.2138C84.5769 20.2008 84.5947 20.1934 84.6132 20.1934H86.5342C86.5433 20.1934 86.5522 20.1952 86.5606 20.1987C86.5689 20.2023 86.5766 20.2074 86.5829 20.2139C86.5892 20.2204 86.5941 20.2281 86.5975 20.2365C86.6008 20.2449 86.6024 20.2539 86.6021 20.263V21.0563H86.6253C86.6459 21.0155 86.6704 20.9766 86.6982 20.9403C86.7698 20.8544 86.846 20.7726 86.9267 20.6952C87.0408 20.5807 87.1643 20.476 87.296 20.3822C87.4552 20.2759 87.6279 20.1912 87.8095 20.1305C88.0154 20.0578 88.2321 20.0203 88.4504 20.0195C88.6746 20.0192 88.8977 20.051 89.1129 20.1139C89.2794 20.1559 89.4401 20.2182 89.5914 20.2994L89.757 20.3938L88.929 22.0599C88.9247 22.0691 88.9185 22.0773 88.9105 22.0837C88.9026 22.0901 88.8933 22.0946 88.8834 22.0969C88.8734 22.0991 88.8632 22.099 88.8533 22.0966C88.8434 22.0942 88.8341 22.0896 88.8263 22.0831C88.5294 21.8874 88.1778 21.7917 87.8227 21.8098C87.599 21.8048 87.3781 21.8622 87.185 21.9754C87.0228 22.0677 86.8911 22.2053 86.8058 22.3712C86.7427 22.4985 86.6907 22.6309 86.6502 22.7671C86.6234 22.8502 86.6077 22.9365 86.6038 23.0238V26.0926C86.6038 26.1106 86.5966 26.1278 86.5839 26.1406C86.5711 26.1533 86.5538 26.1605 86.5358 26.1605H84.6148C84.6049 26.161 84.5949 26.1594 84.5857 26.1557C84.5764 26.152 84.5681 26.1463 84.5613 26.139C84.5545 26.1318 84.5495 26.1231 84.5464 26.1136C84.5433 26.1042 84.5422 26.0942 84.5435 26.0843Z" fill="#3E3E45"/>
<path d="M93.4891 23.0625H93.0503C93.0128 23.0625 92.9824 23.0929 92.9824 23.1304V23.5693C92.9824 23.6068 93.0128 23.6372 93.0503 23.6372H93.4891C93.5266 23.6372 93.5571 23.6068 93.5571 23.5693V23.1304C93.5571 23.0929 93.5266 23.0625 93.4891 23.0625Z" fill="url(#paint1_linear_2446_4605)"/>
<path d="M94.253 23.0625H93.814C93.7765 23.0625 93.7461 23.0929 93.7461 23.1304V23.5693C93.7461 23.6068 93.7765 23.6372 93.814 23.6372H94.253C94.2905 23.6372 94.3209 23.6068 94.3209 23.5693V23.1304C94.3209 23.0929 94.2905 23.0625 94.253 23.0625Z" fill="url(#paint2_linear_2446_4605)"/>
<path d="M93.4891 22.3047H93.0503C93.0128 22.3047 92.9824 22.3351 92.9824 22.3726V22.8115C92.9824 22.849 93.0128 22.8794 93.0503 22.8794H93.4891C93.5266 22.8794 93.5571 22.849 93.5571 22.8115V22.3726C93.5571 22.3351 93.5266 22.3047 93.4891 22.3047Z" fill="url(#paint3_linear_2446_4605)"/>
<path d="M94.253 22.3047H93.814C93.7765 22.3047 93.7461 22.3351 93.7461 22.3726V22.8115C93.7461 22.849 93.7765 22.8794 93.814 22.8794H94.253C94.2905 22.8794 94.3209 22.849 94.3209 22.8115V22.3726C94.3209 22.3351 94.2905 22.3047 94.253 22.3047Z" fill="url(#paint4_linear_2446_4605)"/>
<path d="M76.1586 25.3279C75.6192 24.706 75.3223 23.9104 75.3223 23.0872C75.3223 22.2639 75.6192 21.4683 76.1586 20.8464C76.4249 20.5478 76.7531 20.3108 77.1204 20.1521C77.4877 19.9933 77.8852 19.9166 78.2852 19.9273C78.9562 19.9051 79.6116 20.1322 80.125 20.5649C80.1345 20.5742 80.1466 20.5804 80.1597 20.5828C80.1727 20.5852 80.186 20.5836 80.1981 20.5782C80.2103 20.5729 80.2205 20.564 80.2276 20.5528C80.2346 20.5415 80.2381 20.5284 80.2376 20.5152V20.1691C80.2376 20.16 80.2394 20.151 80.2429 20.1427C80.2465 20.1343 80.2517 20.1268 80.2582 20.1205C80.2646 20.1141 80.2724 20.1092 80.2808 20.1058C80.2892 20.1025 80.2983 20.1009 80.3073 20.1012H82.2284C82.2464 20.1012 82.2637 20.1083 82.2764 20.121C82.2891 20.1338 82.2963 20.1511 82.2963 20.1691V25.9953C82.2965 26.0044 82.2949 26.0134 82.2916 26.0218C82.2883 26.0303 82.2834 26.0379 82.277 26.0444C82.2707 26.0509 82.2631 26.0561 82.2547 26.0596C82.2464 26.0631 82.2374 26.0649 82.2284 26.0649H80.3304C80.312 26.0649 80.2943 26.0576 80.2813 26.0445C80.2682 26.0315 80.2609 26.0138 80.2609 25.9953V25.3958H80.2376C79.9943 25.6719 79.6933 25.891 79.3558 26.0379C79.0184 26.1847 78.653 26.2555 78.2852 26.2454C77.8855 26.2553 77.4883 26.1784 77.1212 26.02C76.7541 25.8616 76.4256 25.6255 76.1586 25.3279ZM77.9075 22.0835C77.7748 22.2155 77.6707 22.3736 77.602 22.5477C77.5333 22.7219 77.5015 22.9084 77.5084 23.0954C77.5015 23.2797 77.5316 23.4635 77.597 23.6359C77.6624 23.8083 77.7619 23.9658 77.8893 24.0991C78.0218 24.2306 78.1801 24.3332 78.3542 24.4005C78.5284 24.4677 78.7147 24.4982 78.9012 24.4899C79.0853 24.4966 79.2687 24.4649 79.4398 24.3967C79.6109 24.3286 79.7659 24.2255 79.8949 24.0941C80.148 23.82 80.2878 23.46 80.286 23.0869C80.2841 22.7137 80.1407 22.3552 79.8849 22.0835C79.6187 21.8295 79.2649 21.6878 78.897 21.6878C78.5291 21.6878 78.1753 21.8295 77.9092 22.0835H77.9075Z" fill="#3E3E45"/>
<path d="M97.9312 20.1884H96.0332C96.0148 20.1884 95.997 20.1958 95.9839 20.2088C95.9709 20.2219 95.9637 20.2395 95.9637 20.258V20.9387C95.6474 20.571 95.3012 20.2282 94.9568 19.8887L94.7264 19.6618C93.857 18.8072 92.9959 17.9444 92.1347 17.0832C92.126 17.0744 92.1151 17.0681 92.1032 17.0649C92.0912 17.0617 92.0787 17.0617 92.0668 17.065C91.5889 17.19 91.1279 17.3724 90.6938 17.6082C90.6846 17.6135 90.6767 17.6208 90.6707 17.6297C90.6647 17.6385 90.6608 17.6486 90.6594 17.6592C90.6579 17.6697 90.6589 17.6805 90.6623 17.6906C90.6657 17.7007 90.6715 17.7099 90.679 17.7175L91.7074 18.7476L91.7454 18.784L91.8348 18.8751C92.6927 19.733 93.555 20.5865 94.4217 21.4355C94.7629 21.7667 95.1173 22.1195 95.2713 22.57C95.6357 23.6398 94.7563 24.7892 93.65 24.7892C93.3092 24.7901 92.9761 24.6879 92.6945 24.496C92.4865 24.3563 92.3118 24.1725 92.1831 23.9575C92.0543 23.7426 91.9747 23.5019 91.9497 23.2526C91.9247 23.0033 91.955 22.7515 92.0385 22.5153C92.122 22.2791 92.2566 22.0642 92.4328 21.886C92.4391 21.8797 92.4441 21.8722 92.4475 21.8639C92.4509 21.8557 92.4527 21.8469 92.4527 21.8379C92.4527 21.829 92.4509 21.8202 92.4475 21.812C92.4441 21.8037 92.4391 21.7962 92.4328 21.7899L91.4887 20.8459C91.4757 20.8331 91.4582 20.8259 91.4399 20.8259C91.4216 20.8259 91.4041 20.8331 91.3911 20.8459C91.0885 21.1421 90.8482 21.4956 90.6841 21.8859C90.5201 22.2761 90.4355 22.6952 90.4355 23.1185C90.4356 23.5419 90.5201 23.9609 90.6843 24.3512C90.8484 24.7414 91.089 25.0949 91.3915 25.391C91.6941 25.687 92.0527 25.9197 92.4464 26.0753C92.84 26.231 93.2608 26.3064 93.6841 26.2972C94.1073 26.2881 94.5246 26.1945 94.9111 26.022C95.2977 25.8495 95.6459 25.6015 95.9354 25.2926C95.9453 25.2827 95.9538 25.2711 95.9637 25.2595V26.0876C95.9637 26.0966 95.9654 26.1056 95.9689 26.114C95.9724 26.1223 95.9776 26.1299 95.9841 26.1362C95.9906 26.1425 95.9983 26.1475 96.0067 26.1508C96.0151 26.1541 96.0242 26.1557 96.0332 26.1555H97.9312C97.9401 26.1555 97.9488 26.1537 97.957 26.1503C97.9653 26.1469 97.9729 26.1419 97.9792 26.1356C97.9855 26.1293 97.9905 26.1218 97.9939 26.1136C97.9973 26.1053 97.9989 26.0965 97.9989 26.0876V20.263C97.9998 20.2535 97.9988 20.244 97.9958 20.2349C97.9929 20.2259 97.988 20.2176 97.9816 20.2106C97.9752 20.2036 97.9674 20.198 97.9587 20.1942C97.9499 20.1903 97.9407 20.1884 97.9312 20.1884Z" fill="url(#paint5_linear_2446_4605)"/>
<path d="M95.4828 18.5127C96.1249 18.5127 96.6455 17.9922 96.6455 17.3501C96.6455 16.708 96.1249 16.1875 95.4828 16.1875C94.8408 16.1875 94.3203 16.708 94.3203 17.3501C94.3203 17.9922 94.8408 18.5127 95.4828 18.5127Z" fill="url(#paint6_linear_2446_4605)"/>
<defs>
<filter id="filter0_d_2446_4605" x="0" y="0" width="36.2109" height="50.3574" filterUnits="userSpaceOnUse" color-interpolation-filters="sRGB">
<feFlood flood-opacity="0" result="BackgroundImageFix"/>
<feColorMatrix in="SourceAlpha" type="matrix" values="0 0 0 0 0 0 0 0 0 0 0 0 0 0 0 0 0 0 127 0" result="hardAlpha"/>
<feOffset dy="4"/>
<feGaussianBlur stdDeviation="2"/>
<feComposite in2="hardAlpha" operator="out"/>
<feColorMatrix type="matrix" values="0 0 0 0 0 0 0 0 0 0 0 0 0 0 0 0 0 0 0.25 0"/>
<feBlend mode="normal" in2="BackgroundImageFix" result="effect1_dropShadow_2446_4605"/>
<feBlend mode="normal" in="SourceGraphic" in2="effect1_dropShadow_2446_4605" result="shape"/>
</filter>
<linearGradient id="paint0_linear_2446_4605" x1="24.9914" y1="15.425" x2="1.70955" y2="31.3586" gradientUnits="userSpaceOnUse">
<stop offset="0.14" stop-color="#602D8B"/>
<stop offset="1" stop-color="#BC1F38"/>
</linearGradient>
<linearGradient id="paint1_linear_2446_4605" x1="92.9824" y1="23.349" x2="93.5571" y2="23.349" gradientUnits="userSpaceOnUse">
<stop offset="0.15" stop-color="#BC2039"/>
<stop offset="1" stop-color="#BC1F38"/>
</linearGradient>
<linearGradient id="paint2_linear_2446_4605" x1="93.7461" y1="23.349" x2="94.3209" y2="23.349" gradientUnits="userSpaceOnUse">
<stop offset="0.15" stop-color="#BC2039"/>
<stop offset="1" stop-color="#BC1F38"/>
</linearGradient>
<linearGradient id="paint3_linear_2446_4605" x1="92.9824" y1="22.5929" x2="93.5571" y2="22.5929" gradientUnits="userSpaceOnUse">
<stop offset="0.15" stop-color="#BC2039"/>
<stop offset="1" stop-color="#BC1F38"/>
</linearGradient>
<linearGradient id="paint4_linear_2446_4605" x1="93.7461" y1="22.5929" x2="94.3209" y2="22.5929" gradientUnits="userSpaceOnUse">
<stop offset="0.15" stop-color="#BC2039"/>
<stop offset="1" stop-color="#BC1F38"/>
</linearGradient>
<linearGradient id="paint5_linear_2446_4605" x1="89.354" y1="26.8511" x2="96.1557" y2="20.0493" gradientUnits="userSpaceOnUse">
<stop offset="0.12" stop-color="#BC1F38"/>
<stop offset="0.89" stop-color="#602D8A"/>
</linearGradient>
<linearGradient id="paint6_linear_2446_4605" x1="93.1047" y1="17.3501" x2="95.4299" y2="17.3501" gradientUnits="userSpaceOnUse">
<stop offset="0.14" stop-color="#BC2039"/>
<stop offset="1" stop-color="#BC1F38"/>
</linearGradient>
</defs>
</svg>
